<svg width="25" height="24" viewBox="0 0 25 24" fill="none" xmlns="http://www.w3.org/2000/svg">
<path d="M6.22454 21.1878L6.22459 21.1877L6.21307 21.184C5.17927 20.8516 4.38623 20.2538 3.84694 19.4309C3.30489 18.6039 3 17.5195 3 16.19V7.81C3 6.08944 3.51093 4.77618 4.39355 3.89355C5.27618 3.01093 6.58944 2.5 8.31 2.5H16.69C18.4106 2.5 19.7238 3.01093 20.6064 3.89355C21.4891 4.77618 22 6.08944 22 7.81V16.19C22 17.5195 21.6951 18.6039 21.1531 19.4309C20.6138 20.2538 19.8207 20.8516 18.7869 21.184L18.7869 21.1839L18.7755 21.1878C18.18 21.3954 17.4777 21.5 16.69 21.5H8.31C7.52226 21.5 6.82004 21.3954 6.22454 21.1878ZM18.0242 20.4664L18.219 20.8499L18.6273 20.7146C19.5692 20.4025 20.3026 19.8579 20.7929 19.0722C21.2781 18.2947 21.5 17.322 21.5 16.19V7.81C21.5 6.31593 21.1043 5.09221 20.2561 4.24395C19.4078 3.39568 18.1841 3 16.69 3H8.31C6.81593 3 5.59221 3.39568 4.74395 4.24395C3.89568 5.09221 3.5 6.31593 3.5 7.81V16.2C3.5 17.3328 3.72467 18.3077 4.20957 19.0847C4.69959 19.8699 5.43096 20.4133 6.36617 20.7157L6.44117 20.74H6.52H6.53H6.83616L6.97534 20.4673C7.85636 18.7412 9.95607 17.47 12.5 17.47C15.0441 17.47 17.1532 18.7513 18.0242 20.4664Z" fill="#7F7D83" stroke="#7F7D83"/>
<path d="M9.41992 11.58C9.41992 9.87614 10.7961 8.5 12.4999 8.5C14.2038 8.5 15.5799 9.87614 15.5799 11.58C15.5799 13.2857 14.202 14.67 12.4999 14.67C10.7979 14.67 9.41992 13.2857 9.41992 11.58Z" fill="#7F7D83" stroke="#7F7D83"/>
</svg>
